<?xml version='1.0' encoding='utf-8'?>
<svg xmlns="http://www.w3.org/2000/svg" width="415px" height="415px" version="1.1" viewBox="260 760 415 415"> <g fill="#f8e0bd"> <path d="m601.16 967.13-1.1244 16.714q-7.994 50.509-46.78 80.793-39.055 30.259-91.979 24.54-50.51-7.9937-80.793-46.78-9.7031-12.538-15.985-27.323l-5.2796-15.2q-4.3508-15.688-4.3997-32.744 1.3207-52.34 36.076-87.095 34.755-34.755 87.095-36.076 52.34 1.3212 87.095 36.076 34.755 34.755 36.076 87.095"/> </g> <g fill="#030928"> <path d="m472.86 860.77c-0.57502 1.4374-0.53395 2.0123 0.20537 2.6284 0.82141 0.69827 0.78033 1.5198-0.08215 1.8072-0.41077 0.12315-3.1214 0.69835-6.0374 1.2733-2.916 0.61597-5.7088 1.2731-6.2839 1.4785-1.2732 0.4928-1.6428 1.5196-0.78027 2.341 0.65716 0.6571 0.53394 0.78025-1.4786 1.7248-2.6285 1.2733-2.9571 2.3-1.2321 3.7786l1.191 0.98573-0.94458 1.109c-1.4786 1.7248-1.684 5.9962-0.57502 11.705 0.98567 4.8463 0.8625 5.832-0.82146 5.832-3.0803 0-2.6285 8.2554 0.69824 11.952 0.78034 0.86254 1.766 1.6018 2.1768 1.6018 0.94464 0 1.15 1.6838 1.4785 11.705 0.20538 5.4212 0.12329 8.3374-0.20533 9.5283-0.53393 1.9304-1.3553 2.6286-10.514 8.5018-2.7108 1.7249-5.9553 3.9016-7.2696 4.8052-2.0124 1.4786-2.7928 1.7661-6.1196 2.2589-4.8463 0.69825-7.1463 1.4785-10.103 3.4089-5.3391 3.45-9.8981 10.432-11.664 17.907-0.69818 3.0804-0.82141 4.682-0.73926 9.8569l0.12323 6.1608-1.4786 2.5054c-4.025 6.6122-6.2428 12.814-7.7213 21.644-0.49286 2.7519-0.94464 5.3393-1.0679 5.709-0.12323 0.4517-2.4642 1.8892-5.5034 3.4088-8.7071 4.4357-10.761 6.2017-16.839 14.375-1.5196 2.0126-4.025 4.8874-5.5857 6.3661-2.7517 2.5874-12.239 9.0353-17.044 11.623l-2.3821 1.3142-4.1071-2.1768c-5.3803-2.8339-7.7624-3.6142-13.512-4.4358-6.4071-0.8623-8.9534-0.6158-10.432 1.0269-0.61602 0.6982-1.2731 1.2732-1.4374 1.2732-0.20532 0.041-0.98567 0.3286-1.8071 0.7394-1.766 0.8624-10.637 10.391-10.637 11.459 0.04103 1.1911 2.916 5.0517 4.7642 6.407 3.6964 2.5874 13.06 3.6964 22.548 2.5874 6.7356-0.7803 9.5694-1.4374 14.252-3.2856l3.4089-1.3553-3.2857 3.3267c-5.4624 5.5034-6.366 8.4607-4.5178 14.827 1.4785 5.2159 3.9017 10.104 6.2427 12.568 2.1768 2.341 3.7786 3.2857 7.3106 4.2713 3.5732 1.0269 7.9267 3.2037 10.268 5.1751 2.875 2.4232 5.832 3.6553 10.35 4.3535 3.1214 0.4517 4.7232 0.9447 8.091 2.6285 6.1196 2.9572 11.171 4.3126 24.355 6.4482l6.6946 1.1089-0.94463 1.1087-0.90363 1.068-17.044 0.2465c-9.3642 0.1643-19.344 0.3695-22.178 0.4516-2.8339 0.0822-8.8302 0.2876-13.348 0.4107-8.3785 0.2464-29.489 1.2733-33.514 1.6429-1.2321 0.0822-4.8875 0.3696-8.1731 0.616-8.9534 0.6571-23.534 2.3821-27.928 3.2858-3.6553 0.7391-5.7088 1.6838-6.0785 2.7927-0.32856 1.0268 5.5446 2.834 12.445 3.7787 13.964 1.9303 38.36 3.8606 57.088 4.5175 6.5713 0.2465 12.568 0.5341 13.348 0.6163 0.78033 0.0821 6.6945 0.3696 13.143 0.6159 6.4481 0.2465 14.293 0.6162 17.496 0.8216 10.186 0.6982 31.132 1.0268 65.467 1.0268 29.407 0 58.526-0.3696 61.278-0.8214 0.53376-0.0822 5.832-0.2465 11.828-0.3698 5.9964-0.1643 12.65-0.3696 14.786-0.4516 2.1357-0.1234 7.516-0.4107 11.911-0.6161 20.823-1.0679 25.012-1.3142 39.017-2.2589 8.2552-0.5751 15.443-1.109 16.018-1.1912 0.57496-0.123 2.341-0.2873 3.9018-0.4516 1.6018-0.1232 3.9016-0.3286 5.1338-0.4518 3.0803-0.2876 11.377-1.3554 12.486-1.6017 0.4517-0.0821 1.4376-0.2465 2.0947-0.3698 4.8874-0.7393 6.6534-1.3142 7.1874-2.2999 1.4375-2.7108-9.7748-4.8463-35.321-6.8177-15.812-1.1912-45.917-2.3411-76.392-2.834l-14.991-0.2464-1.4374-1.4375-1.4376-1.3963 2.4232-1e-4c3.2857 1e-4 9.9802-0.9856 16.88-2.5053 6.3659-1.4374 9.9392-2.6285 13.307-4.5589 2.0535-1.1499 3.9018-1.6017 10.103-2.5464 2.4231-0.4108 5.6677-2.0125 8.2962-4.148 2.9982-2.4643 4.4767-3.2037 9.1999-4.5589 2.1357-0.5751 4.641-1.5607 5.6267-2.1358 4.5178-2.5875 9.0766-12.239 9.2408-19.468 0.08216-4.1892-0.65711-5.9964-4.2713-9.8981-1.3553-1.4786-2.2998-2.7928-2.0946-2.9161 0.20537-0.1232 1.7251 0.3286 3.4089 0.9447 1.6838 0.6571 4.1892 1.3142 5.5856 1.4375 1.3965 0.1643 3.8196 0.5339 5.3392 0.8625 6.7768 1.4374 20.494-0.2464 23.698-2.9161 1.4376-1.2321 3.6964-4.1071 4.1072-5.257 0.28743-0.7804-1.109-2.341-4.6821-5.2162-1.3555-1.0677-2.0535-2.0534-2.6286-3.6141-0.8624-2.4642-2.2178-3.4088-3.5731-2.5875-0.6161 0.4108-0.7804 0.3696-0.7804-0.082 0-0.2875-0.7803-1.4377-1.725-2.5054l-1.7249-1.9303-4.7232 0.2465c-5.3392 0.3284-10.719 1.232-12.568 2.1767-0.6572 0.3695-2.7107 1.5197-4.5179 2.6284-2.1767 1.2732-3.6963 1.9303-4.3946 1.8482-2.5053-0.2874-16.51-9.0766-20.166-12.691-1.9715-1.9713-8.0088-9.6516-8.5016-10.843-0.45185-1.1089-3.9428-4.3124-6.5304-6.0373-1.4784-0.98559-4.2714-2.5875-6.2017-3.5321-5.5856-2.834-5.5445-2.834-6.1196-6.2428-1.8892-10.925-3.6963-16.387-7.8445-23.369l-2.5053-4.2304 0.32847-3.532c0.9037-9.4463-1.4784-18.482-6.5302-24.766-4.4767-5.5857-8.7891-7.9678-16.018-8.9123-3.9017-0.49295-4.8874-0.98575-14.909-7.5982-5.1749-3.4089-8.0909-5.5857-8.6248-6.4891-0.78039-1.2323-0.82146-1.9716-0.73932-10.761 0-5.2161 0.20533-9.9802 0.41071-10.637 0.28748-0.9447 0.78033-1.3553 2.0536-1.7661 0.94458-0.32846 2.0124-1.0268 2.341-1.5606 0.86249-1.3144 1.8892-5.2982 1.8892-7.3106 0-2.0126-0.53386-2.9983-2.0945-3.8196-1.2732-0.65723-1.2732-0.65723-1.0269-3.1626 0.98578-10.144 0.73938-12.362-1.4785-14.786-1.15-1.232-1.2321-1.3964-0.94465-3.8196 0.4107-3.9839-0.53393-5.2159-6.366-8.2963-1.0268-0.53382-2.5052-1.4785-3.2856-2.0947-1.1911-0.94458-2.1357-1.232-5.5446-1.6427-2.3-0.2876-4.8053-0.86254-5.6678-1.3142-1.9304-0.98573-1.8893-0.98573-2.341 0.28747zm-33.555 158.62c3.2446 8.0909 3.491 9.9391 2.6285 17.825-0.49286 4.1069-0.69824 8.5836-0.61609 12.896 0.12323 6.5714 0.12323 6.5714-0.98572 8.2964-1.9714 2.9571-2.341 3.0803-10.309 3.1214-5.5856 0-9.4873-0.2875-18.769-1.3554-14.744-1.766-25.875-1.9304-40.66-0.6162-1.8071 0.1232-1.0267-0.1642 3.6964-1.5195 10.062-2.834 22.219-7.1463 27.025-9.5695 2.2588-1.15 13.677-9.2407 15.566-11.007 1.6428-1.5608 2.8339-4.3125 3.4088-7.8035 0.65718-4.1482 1.3143-5.2981 5.3392-9.241 3.2446-3.1213 5.9143-6.5713 8.8303-11.377l0.6982-1.191 0.94457 2.8339c0.49293 1.5606 1.9304 5.4624 3.2036 8.707zm84.77-5.3392c1.3554 2.0534 3.5732 4.6 5.5446 6.3659 3.8607 3.4911 4.5999 4.5999 5.2571 7.8857 1.1499 6.0374 2.7517 8.5428 7.3927 11.705 1.2321 0.8626 3.8196 2.7929 5.7499 4.3125 3.2036 2.5464 8.5428 5.5445 13.143 7.3106 1.0268 0.4106 1.8893 0.6982 1.9304 0.7393 0.3695 0 8.255 2.916 8.748 3.2034 0.36969 0.2054 1.2733 0.493 2.0536 0.6573 0.7804 0.1643 1.6428 0.4107 1.8482 0.575 0.24644 0.1232 0.49283 0.2464 0.61606 0.2464 1.4785 0.1643 9.857 2.4641 9.323 2.5874-0.41074 0.0821-3.2856-0.0822-6.366-0.3285-10.021-0.8214-14.539-0.9447-21.028-0.4518-6.5303 0.4928-18.852 1.725-25.053 2.5463-1.9304 0.2464-4.5999 0.4929-5.9553 0.6161-1.3553 0.0821-3.1214 0.2464-3.9428 0.4107-0.8624 0.1233-1.6428 0.0412-1.766-0.1643-0.12325-0.2053-1.0678-0.5339-2.0946-0.6571-2.0536-0.3286-3.9839-1.725-5.0107-3.6553-0.53387-1.0678-0.61603-2.3-0.36957-8.091 0.16424-4.0661 0.0821-8.091-0.1643-10.062-0.7803-5.8319-0.9446-10.637-0.4517-12.896 0.2464-1.2323 1.5607-4.9286 2.8749-8.2142 1.3554-3.2857 2.6286-6.8178 2.875-7.8445 0.8214-3.1625 0.8214-3.1625 1.766-1.643 0.4518 0.78039 1.8482 2.9572 3.0803 4.8465zm104.73 38.072c-0.08215 0.9035-0.45172 2.341-0.82129 3.1625-0.53399 1.3143-0.86261 1.5608-1.8893 1.5608-1.9303 0-4.6-1.1912-6.2839-2.7929-2.7929-2.6697-1.8481-3.7786 3.2446-3.8196 1.7661 0 3.5731-0.1643 4.0249-0.3286 1.3143-0.5339 1.9714 0.2875 1.725 2.2178zm-293.62-1.6018c0.65716 0.1231 0.90356 0.4518 0.90356 1.232 0 1.2322-2.9571 4.2714-4.9696 5.0929-1.2731 0.534-1.3552 0.534-2.4642-0.8215-1.8893-2.2589-2.0946-3.3677-0.90355-4.8873 0.9857-1.2733 1.0678-1.2733 3.7374-1.0679 1.5196 0.1643 3.1625 0.3286 3.6964 0.4518z"/> </g> <g fill="#bf6e48"> <path d="m462.4 881.8c-0.43736 0.70295-0.79476 1.443-0.79419 1.6742 0.00351 1.3878-1.2984 8.366-2.1712 11.634-1.1117 4.362-1.2652 7.935-0.379 10.404 1.3319 3.8268 2.3318 18.535 1.5804 24.274-0.43587 3.3466-1.9244 4.9039-7.9249 8.1832-1.3289 0.72844-3.5836 2.1798-5.0735 3.2259-1.4497 1.0453-3.1006 2.133-3.6644 2.417-0.52337 0.28351-1.7315 1.1285-2.6982 1.8517-1.3292 1.0045-2.2952 1.3729-4.0246 1.5945-2.9345 0.3569-6.6326 1.3543-8.8443 2.4098-3.4575 1.6242-9.5095 8.255-11.421 12.469-1.14 2.5466-1.9851 8.7795-2.1129 15.696l-0.07904 5.6585-2.6108 4.6949c-2.0419 3.6555-3.1098 6.2254-4.6831 11.327-1.1597 3.621-2.2051 7.8479-2.3803 9.418-0.1345 1.5307-0.47175 3.1444-0.75816 3.5491-0.49144 0.7282-2.7245 1.9911-7.4708 4.3167-3.2448 1.5904-9.8344 6.5076-11.066 8.2909-0.53273 0.6892-1.7205 2.1499-2.6613 3.2051-0.98083 1.0154-2.4161 2.842-3.1986 4.0596-1.9756 2.9235-5.6878 5.9763-14.93 12.25-6.2307 4.2374-8.3014 5.2974-9.4607 4.9337-0.48016-0.1215-2.0293-1.0941-3.4166-2.0667-3.0074-2.1855-5.1947-3.0729-10.934-4.3559-4.3762-1.0015-8.3636-1.2748-9.3763-0.6256-0.93197 0.6084-0.14038 0.8895 7.6872 2.8961 4.9777 1.2873 9.2676 3.3088 12.31 5.8645 2.2165 1.8279 3.3391 2.0301 5.6916 1.0101 4.8695-2.1633 22.503-13.5 27.361-17.572 0.93857-0.7741 3.2744-3.5388 5.1634-6.1788 1.9278-2.5983 4.3423-5.4801 5.4027-6.4552 2.201-1.9094 7.1954-4.4396 11.006-5.51 2.8795-0.82395 2.7565-0.62135 3.12-5.666 0.13523-1.7734 0.72363-4.6753 1.3034-6.5293 2.025-6.2393 7.5917-18.176 10.438-22.315 0.69114-1.0441 1.1804-2.0458 1.0603-2.2041-0.11994-0.1981-1.0875-0.1484-2.1369 0.1412-1.0492 0.28974-2.0572 0.4592-2.2177 0.341-0.52175-0.2735-0.33822-3.859 0.3241-6.8487 1.241-5.7704 4.2442-11.076 8.6852-15.444 2.9457-2.8841 5.7654-4.5016 10.959-6.2304 2.0544-0.6993 4.0287-1.5162 4.3916-1.7977 1.5724-1.3643 2.2573-1.4529 6.4897-0.87956 4.0359 0.5766 4.1974 0.5744 9.004-0.40174 5.4172-1.104 10.559-1.3344 12.913-0.57543 0.8528 0.26543 1.6648 0.4126 1.7454 0.29263 0.56549-0.5229-0.81965-1.8497-2.5656-2.4978-1.7039-0.60857-3.0809-0.66797-10.644-0.48102-4.7655 0.10755-9.0013 0.04975-9.4045-0.06275-0.68543-0.2664-0.6854-0.3454 0.08035-1.0664 0.44337-0.4403 1.0478-1.0012 1.37-1.2425 0.68494-0.6015 5.9237-3.7927 6.2061-3.7969 0.08075-0.00123 1.2495-0.72803 2.5389-1.6142 3.4652-2.3764 3.7458-3.0499 3.926-10.206 0.108-4.2366 0.304-5.9634 0.6267-5.8122 2.7839 1.1274 6.2579 2.4406 7.0258 2.6631 1.7385 0.48096 0.84509-0.56354-2.2302-2.55-4.8453-3.0864-4.8857-3.1248-5.0625-8.239-0.13376-4.2478-0.17453-4.4419-1.9104-7.7952-2.0548-4.0013-2.2587-5.5493-0.85948-6.7022 0.87925-0.7159 0.91896-0.8716 0.47578-1.8318-0.44284-0.92107-0.36392-1.3487 0.91016-3.8529 1.3926-2.7368 1.3922-2.8528 1.3771-7.7189-0.01291-4.125-0.09518-4.8935-0.61432-4.882-0.3194 0.0071-0.95654 0.59883-1.3939 1.2634z"/> <path d="m431.85 974.79c-0.00578 1.6737 1.5578 5.4482 3.491 8.3064 3.876 5.8106 10.369 9.4475 16.919 9.3919 1.3441-0.0113 2.3218-0.14006 2.1994-0.2599-0.16305-0.1192-1.9558-0.7877-4.0726-1.493-2.0745-0.6648-4.7971-1.8853-6.0555-2.7167-3.2033-2.0552-6.7618-5.8636-9.26-9.9132-2.5328-4.0798-3.2167-4.7892-3.2217-3.3155z"/> <path d="m435.85 1004.2c0.36128 1.7727 2.2182 8.2678 4.0819 14.256 0.4873 1.4589 1.1784 3.2834 1.5856 4.0942 0.81522 1.6233 0.809 6.2247-0.0231 15.456-0.91782 9.7145-0.39737 18.104 1.1641 19.381 0.86358 0.7005 5.2292 1.8131 5.6415 1.4004 0.12372-0.124-0.16467-0.7017-0.61783-1.279-2.3048-2.8845-3.1175-14.514-1.4714-20.539 0.82171-3.0283 0.78076-2.9872 3.365-2.4642 1.7651 0.403 1.7238-0.1696-0.28733-3.962-0.9018-1.6288-2.2935-4.8842-3.1108-7.2419-2.0802-5.8415-9.5911-21.001-10.363-20.995-0.1626 0.00124-0.12417 0.84729 0.03562 1.8944z"/> </g> <g fill="#bf6e48"> <path d="m492.37 882.78c0.44259 0.6997 0.80557 1.437 0.80673 1.6682 0.00694 1.3877 1.3612 8.356 2.2585 11.617 1.1444 4.3535 1.3247 7.9253 0.45716 10.401-1.3031 3.8367-2.1925 18.552-1.398 24.286 0.461 3.3432 1.9612 4.8892 7.9862 8.1234 1.3343 0.7184 3.5999 2.1529 5.0976 3.1876 1.4575 1.0345 3.1166 2.1098 3.6824 2.3894 0.52549 0.2796 1.74 1.1155 2.712 1.8314 1.3367 0.9945 2.3055 1.3557 4.0365 1.5642 2.9372 0.33472 6.6426 1.3044 8.8622 2.3433 3.4696 1.5982 9.5712 8.1833 11.514 12.383 1.1592 2.538 2.0511 8.7644 2.2307 15.68l0.1216 5.6577 2.646 4.6752c2.0693 3.6401 3.1565 6.2019 4.768 11.291 1.1869 3.6122 2.264 7.831 2.451 9.3999 0.146 1.5296 0.49536 3.1408 0.7848 3.5432 0.4968 0.7246 2.7394 1.9707 7.503 4.2605 3.2566 1.566 9.883 6.4336 11.128 8.2076 0.53785 0.6852 1.7365 2.1368 2.6852 3.1849 0.9884 1.0081 2.4374 2.8238 3.229 4.0354 1.9975 2.9087 5.7326 5.9335 15.022 12.138 6.2623 4.1905 8.341 5.235 9.4976 4.8625 0.47924-0.1251 2.021-1.1093 3.4009-2.0921 2.991-2.2082 5.1715-3.112 10.901-4.438 4.3686-1.0344 8.3537-1.3377 9.3714-0.6961 0.9365 0.6014 0.147 0.8885-7.6652 2.9538-4.9679 1.3247-9.2425 3.3783-12.265 5.9568-2.2027 1.8444-3.3237 2.0551-5.6839 1.0529-4.8856-2.1268-22.604-13.33-27.492-17.366-0.9444-0.7671-3.301-3.5143-5.2097-6.14-1.9474-2.5836-4.3834-5.4472-5.4511-6.4145-2.2153-1.8927-7.2286-4.3853-11.047-5.427-2.8856-0.8024-2.761-0.60067-3.1624-5.6425-0.14855-1.7724-0.75875-4.6697-1.3524-6.5193-2.0718-6.224-7.7281-18.118-10.606-22.236-0.699-1.039-1.1958-2.037-1.0768-2.1961 0.11844-0.19897 1.0863-0.15657 2.1379 0.12513 1.0514 0.2818 2.0607 0.44365 2.2202 0.3243 0.51965-0.27744 0.30921-3.8614-0.37561-6.8461-1.2843-5.7609-4.3272-11.044-8.8009-15.379-2.9672-2.862-5.799-4.4582-11.006-6.148-2.0596-0.6838-4.04-1.4859-4.405-1.7646-1.5826-1.3524-2.2682-1.4359-6.4962-0.8308-4.0315 0.6069-4.193 0.6059-9.0068-0.3341-5.4253-1.0633-10.569-1.255-12.917-0.4784-0.85079 0.2719-1.6617 0.42514-1.7431 0.30575-0.56937-0.51865 0.80576-1.8558 2.5467-2.517 1.6993-0.6213 3.0758-0.691 10.641-0.56095 4.7662 0.07172 9.0014-0.01788 9.4037-0.13345 0.68342-0.27146 0.6828-0.35044-0.08837-1.0657-0.44663-0.437-1.0552-0.9933-1.3793-1.2322-0.68945-0.5963-5.952-3.7481-6.2345-3.7502-0.08073-6.3e-4 -1.2549-0.71857-2.551-1.595-3.4829-2.3503-3.7686-3.0217-4.0025-10.176-0.1398-4.2357-0.34876-5.9608-0.67034-5.8074-2.7754 1.1483-6.2393 2.4876-7.0056 2.7158-1.7348 0.49402-0.8493-0.55714 2.2109-2.5666 4.822-3.1227 4.8621-3.1614 5.0005-8.2769 0.10187-4.2487 0.14117-4.443 1.8518-7.8094 2.0247-4.0166 2.2169-5.5662 0.80908-6.7084-0.88458-0.7092-0.92545-0.8646-0.4895-1.8281 0.43591-0.9244 0.35376-1.3515-0.93909-3.846-1.4131-2.7263-1.4136-2.8423-1.435-7.7084-0.0181-4.125 0.0584-4.8941 0.5776-4.8865 0.31944 0.0047 0.961 0.5916 1.4033 1.2529z"/> <path d="m523.61 975.54c0.0184 1.6736-1.5168 5.4597-3.4285 8.3325-3.8322 5.8394-10.297 9.5251-16.848 9.5188-1.3442-0.00125-2.3228-0.1227-2.2012-0.2435 0.1621-0.12036 1.9498-0.8023 4.0613-1.5236 2.0694-0.6803 4.7828-1.9214 6.0349-2.762 3.1877-2.0793 6.7176-5.9144 9.1853-9.9826 2.5021-4.0987 3.1806-4.8132 3.1967-3.3396z"/> <path d="m519.83 1005c-0.34795 1.7753-2.1561 8.2843-3.9747 14.286-0.47634 1.4625-1.1537 3.2922-1.5548 4.1059-0.803 1.6294-0.7622 6.2306 0.13925 15.455 0.99079 9.7074 0.53335 18.1-1.0185 19.389-0.85836 0.707-5.2154 1.8524-5.6308 1.4427-0.12463-0.123 0.15939-0.7028 0.60817-1.2835 2.283-2.9017 3.0084-14.537 1.3171-20.549-0.84445-3.0221-0.80316-2.9812-3.3834-2.4388-1.762 0.416-1.725-0.1567 0.25757-3.9643 0.88952-1.6355 2.2567-4.9011 3.0563-7.2649 2.0363-5.857 9.4331-21.072 10.205-21.072 0.1626 0 0.13047 0.8464-0.0214 1.8947z"/> </g> </svg>