<?xml version='1.0' encoding='utf-8'?>
<svg xmlns="http://www.w3.org/2000/svg" width="536.76mm" height="656.49mm" clip-rule="evenodd" fill-rule="evenodd" image-rendering="optimizeQuality" shape-rendering="geometricPrecision" text-rendering="geometricPrecision" version="1.1" viewBox="0 0 11805 14438"> <defs> <style type="text/css">  .fil0 {fill:#5C0309} .fil7 {fill:#92060F} .fil3 {fill:#B08273} .fil5 {fill:#BD7337} .fil6 {fill:#E0A794} .fil2 {fill:#F6D0AB} .fil1 {fill:#FB5E7D} .fil8 {fill:#FC7A91} .fil4 {fill:#FDA258}  </style> </defs> <path class="fil0" d="m7601.9 13913c13.62-109.74 27.1-219.51 40.89-329.23l8.66-68.89 1263.2 175.05 16.16 32.21c33.57 66.91 47.15 140.8 19.73 212.46-89.75 234.55-525.1 249.73-730.7 234.75-188.33-13.72-452.41-66.14-596.1-197.26l-26.2-23.9 4.38-35.19zm-5075.7-223.07 1263.2-175.05 8.66 68.89c13.79 109.72 27.26 219.49 40.89 329.23l4.38 35.19-26.2 23.9c-143.68 131.12-407.77 183.55-596.1 197.26-205.6 14.98-640.94-0.2-730.69-234.75-27.42-71.66-13.84-145.55 19.73-212.46l16.16-32.21z"/> <path class="fil1" d="m8869.5 13753c213.59 425.76-896.4 445.23-1199.6 168.56l40.88-329.13 1158.7 160.56zm-6298.2 0c-213.59 425.76 896.41 445.23 1199.6 168.56l-40.88-329.13-1158.7 160.56z"/> <path class="fil0" d="m7838.6 13630c29.49 88.07 25.56 204.19-4.89 290.66-83.15 236.19-339.4 320-566.11 345.46-240.44 26.99-508.46 19.42-734.54-76.15-72.31-30.56-173.31-87.15-224.55-149.56l-25.98-31.64 145.41-354.53 1394.1-73.69 16.55 49.45zm-4219.8-49.45 1394.1 73.69 145.41 354.53-25.98 31.64c-51.24 62.41-152.23 118.99-224.54 149.56-226.08 95.56-494.1 103.14-734.54 76.15-226.74-25.46-483.01-109.29-566.13-345.52-30.42-86.46-34.33-202.55-4.85-290.59l16.55-49.45z"/> <path class="fil1" d="m7773.6 13651s158.04 470.81-513.64 546.22c-671.66 75.41-898.46-201.08-898.46-201.08l113.4-276.5 1298.7-68.64zm-4106.4 0s-158.05 470.81 513.62 546.22 898.46-201.08 898.46-201.08l-113.4-276.5-1298.7-68.64z"/> <path class="fil0" d="m5720.4 13906 844.04-114.46 22.17 43.05c15.26 29.62 26.11 68.08 31.42 100.63 12.26 74.89 1.64 149.75-35 216.69-142.72 260.76-607.69 285.62-862.63 285.62s-719.92-24.86-862.64-285.62c-36.64-66.94-47.26-141.8-35-216.69 5.32-32.55 16.17-71.01 31.43-100.63l22.17-43.05 844.05 114.46z"/> <path class="fil1" d="m6525.7 13866s258.95 502.98-805.27 502.98c-1064.2 0-805.28-502.98-805.28-502.98l805.28 109.2 805.27-109.2z"/> <path class="fil0" d="m8422.6 3239.1c28.7-64.71 83.32-135.39 135.54-181.29 128.43-112.87 283.53-131.05 440.72-66.74 69.18 28.3 128.93 72.78 157.36 144.1 51.05 128.01-26.2 297.03-76.64 415.19-65.51 153.45-135.68 310.68-152.74 478.49-9.19 90.41-0.2 190.09 10.46 280.14 13.58 114.76 32.96 229.08 50.78 343.25 24.81 159 50.28 326.73 48.68 487.79-1.33 134.39-22.92 287.56-120.15 388.66-35.41 36.82-77.99 63.65-125.94 81.09-108.92 39.61-219.56 38.46-321.12-20.66-67.04-39.03-120.34-97.78-162.45-162.24-49.22-75.32-85.72-161.67-112.57-247.39-12.57-40.1-25.09-84.81-32.35-126.36-9.73-55.68-15.45-115.24-20.28-171.45-12.14-141.48-15.38-284.51-10.54-426.41 14.21-417 100.04-842.93 291.24-1216.2zm-5404.4 0c191.2 373.25 277.03 799.17 291.24 1216.2 4.84 141.9 1.6 284.92-10.54 426.41-4.82 56.21-10.54 115.77-20.28 171.45-7.26 41.55-19.78 86.26-32.35 126.36-26.85 85.71-63.36 172.07-112.57 247.39-112.95 172.86-278.61 257.43-483.57 182.9-47.95-17.44-90.53-44.27-125.94-81.09-97.24-101.09-118.82-254.27-120.15-388.66-1.6-161.06 23.87-328.8 48.68-487.79 17.81-114.17 37.2-228.49 50.78-343.25 10.65-90.05 19.65-189.73 10.46-280.14-17.06-167.81-87.23-325.04-152.74-478.49-50.43-118.15-127.68-287.17-76.64-415.19 28.44-71.31 88.18-115.8 157.36-144.1 157.2-64.31 312.29-46.13 440.72 66.74 52.22 45.9 106.85 116.58 135.54 181.29z"/> <path class="fil2" d="m8484.6 3268.6s153.22-351.15 488.37-214.04-68.55 517.98-114.26 967.39c-45.7 449.41 327.55 1371.1-91.4 1523.4s-537.53-504.02-537.53-504.02-163.25-958.48 254.82-1772.8zm-5528.3 0s-153.22-351.15-488.37-214.04 68.55 517.98 114.26 967.39c45.7 449.41-327.55 1371.1 91.4 1523.4s537.53-504.02 537.53-504.02 163.25-958.48-254.82-1772.8z"/> <path class="fil0" d="m1615.1 7748.4c17.23-21.14 38.2-39.18 62.61-52.85 47.46-26.57 104.67-33.96 156.19-14.81 53 19.7 89.24 63.17 104.83 116.88 21.6 74.38 30.77 153.06 52.04 228.55 22.84 81.08 56.85 157.79 117.22 218.16 78.21 78.21 113.26 198.42 129.04 305.13 15.73 106.32 19.57 261.67-3.97 367.57-4.45 20.01-3.58 44.03 0.56 68.69 133.94 19.8 268.49 42.66 401.31 68.15 88.66 17.02 182.87 35.4 271.51 60.17 31.46-147.52 65.68-294.72 99.85-441.62 46.98-201.96 94.76-403.78 143.28-605.37l4.27-17.73 12.51-13.26c59.44-63.03 171.1-47.65 247.04-31.83 103.14 21.49 208.74 59.21 306.86 97.41 149.37 58.16 301.67 126.17 444.98 198.55l38.62 19.51-1 43.26c-2.39 104.13-5.08 208.27-7.62 312.4-2.31 94.74-18.34 195.23-35.14 288.42-21.46 119.04-48 237.61-77.03 355.02-33.45 135.35-70.54 270.49-112.32 403.51-17.02 54.18-34.89 108.25-54.5 161.56-14.44 39.25-30.05 79.64-48.72 117.08-134.76 270.3-352.37 599.88-692.98 599.88h-4.71l-4.66-0.64c-227.44-31.37-442.45-123.15-637.94-241.08-194.8-117.52-373.96-262.59-541.03-416.53-127.67-117.63-246.52-241.26-368.76-363.88-70.75-14.92-138.99-41.79-203.45-74.12-89.61-44.94-172.56-100.72-254.67-157.91-32.1-22.36-64.14-45.14-96.95-66.44-19.33-12.55-42.95-27.75-64.47-36.07-106.35-41.17-382.31-62.56-483.09-3.01l-3.98 2.35-4.25 1.79c-94.08 39.68-233.78 81.14-320.9 3.82-37.66-33.42-57.45-86.82-54.79-137.66-72.47-45.8-130.14-112.64-130.89-203.29-0.73-88.66 53.68-167.93 123-228.49l-1.56-13.15c-9-75.76 4.93-148.99 52.87-209.77 75.65-95.94 211.25-129.37 326.81-143.76 69.89-8.7 140.01-11.22 210.34-13.16 15.42-0.42 46.41-0.38 73.15-1.87-0.7-4.27-1.37-8.42-1.94-12.37-5.55-37.98-10.56-76.05-13.72-114.32-7-84.65-12.97-233.38 92.62-260.92 23.87-6.23 66.13-31.85 87.66-44.61 49.15-29.14 97.28-60.64 144.93-92.18 44.19-29.25 88.1-58.92 132.24-88.27 33.28-22.13 67.3-45.1 101.91-65.06 19.78-11.41 41.52-18.54 64.2-21.13 76.18-8.69 150.33 34.29 193.65 95.05 12.25 17.17 21.92 35.39 28.95 54.23zm-67.57 684.03c19.59-41.18 42.56-80.49 67.88-116.91-35.42-72.82-53.28-174.53-59.88-243.71-2.32-24.36-3.91-50.24-4.24-76.6-79.68 80.67-211.57 149.58-314.39 192.64l23.36 149.47c94.8 33.83 191.26 65.67 287.27 95.11zm8642.3-684.03c7.02-18.84 16.7-37.06 28.95-54.23 43.32-60.76 117.47-103.74 193.65-95.05 22.68 2.59 44.42 9.72 64.2 21.13 34.61 19.96 68.63 42.93 101.91 65.06 44.13 29.34 88.05 59.02 132.24 88.27 47.65 31.54 95.78 63.04 144.93 92.18 21.53 12.76 63.79 38.38 87.65 44.61 105.58 27.54 99.61 176.27 92.62 260.92-3.16 38.27-8.17 76.34-13.72 114.32-0.58 3.95-1.24 8.1-1.94 12.37 26.75 1.49 57.73 1.44 73.15 1.87 70.32 1.94 140.45 4.46 210.33 13.16 115.56 14.39 251.16 47.82 326.81 143.76 47.93 60.79 61.87 134.01 52.86 209.77l-1.55 13.09c67.65 59.27 123.74 138.79 122.99 228.55-0.75 90.64-58.42 157.48-130.89 203.29 2.66 50.84-17.12 104.24-54.79 137.66-87.12 77.31-226.82 35.86-320.9-3.82l-4.25-1.79-3.98-2.35c-100.78-59.55-376.74-38.16-483.09 3.01-21.51 8.33-45.13 23.53-64.47 36.07-32.81 21.3-64.85 44.08-96.95 66.44-82.11 57.19-165.06 112.97-254.67 157.91-64.46 32.32-132.7 59.2-203.45 74.12-122.24 122.63-241.09 246.25-368.76 363.88-167.07 153.94-346.23 299.01-541.03 416.53-195.49 117.93-410.5 209.71-637.94 241.08l-4.66 0.64h-4.71c-340.61 0-558.22-329.58-692.98-599.88-18.67-37.45-34.28-77.83-48.72-117.08-19.6-53.3-37.48-107.38-54.5-161.56-41.78-133.02-78.87-268.17-112.32-403.51-29.03-117.41-55.56-235.99-77.03-355.02-16.8-93.19-32.83-193.68-35.14-288.42-2.54-104.13-5.23-208.27-7.62-312.4l-1-43.26 38.62-19.51c143.31-72.38 295.61-140.39 444.98-198.55 98.12-38.2 203.71-75.92 306.86-97.41 75.93-15.83 187.59-31.2 247.03 31.83l12.51 13.26 4.27 17.73c48.52 201.6 96.3 403.42 143.28 605.37 34.17 146.9 68.38 294.1 99.85 441.62 88.64-24.77 182.85-43.15 271.51-60.17 132.82-25.49 267.37-48.35 401.31-68.15 4.15-24.66 5.01-48.68 0.56-68.69-23.54-105.91-19.69-261.26-3.97-367.57 15.78-106.71 50.83-226.92 129.04-305.13 60.37-60.37 94.38-137.07 117.22-218.16 21.27-75.49 30.44-154.17 52.04-228.55 15.59-53.71 51.83-97.19 104.83-116.88 51.52-19.15 108.72-11.75 156.19 14.81 24.41 13.67 45.38 31.71 62.61 52.85zm67.57 684.03c96.02-29.44 192.48-61.28 287.27-95.11l23.36-149.47c-102.82-43.06-234.71-111.98-314.39-192.64-0.33 26.36-1.92 52.24-4.24 76.6-6.61 69.18-24.46 170.89-59.88 243.71 25.31 36.43 48.29 75.73 67.88 116.91z"/> <path class="fil2" d="m3216.2 8083s-177.91 739.09-246.46 1062.8c209.47 68.56 468.45 278.03 468.45 278.03s-285.65-159.97-498.93-228.52-735.06-144.72-735.06-144.72l7.62 79.98s-68.55-125.69-45.7-228.52 38.1-464.63-106.63-609.36-152.35-358.01-186.63-476.07c-34.27-118.07-194.23-99.03-236.13 34.27s0.01 392.29 60.94 468.46c-83.79 106.64-175.19 289.46-144.72 468.46 30.47 179.01 83.79 198.05 83.79 198.05s-180.23-72.26-95.21-483.69c-175.2-53.33-342.77-114.26-342.77-114.26l-38.09-243.76s308.5-114.26 380.86-247.56-79.98-274.21-179-217.09c-99.02 57.13-396.09 274.22-483.69 297.07s-19.04 331.35-19.04 369.43c0 63.31-716.16-73.64-670.3 312.31 204.45-103.48 494.43-111.34 700.78-68.55 0 0-430.37-22.85-613.18 68.55-169.96 84.98-319.44 275.56-95.21 403.71 134.9-162.57 420.08-215.44 655.08-137.11-215.08-55.07-584.02 18.26-633.17 165.69-15.24 45.7-3.81 209.47 276.13 91.41 125.68-74.27 424.65-47.61 542.71-1.91 118.07 45.7 365.65 289.44 628.44 335.15 289.46 289.46 860.76 925.5 1523.4 1016.9 327.54 0 532.01-362.11 631.63-561.92s312.9-984.37 320.52-1296.7l7.62-312.31s-799.81-403.71-918.08-278.29z"/> <path class="fil2" d="m8588.6 8083s177.91 739.09 246.47 1062.8c-209.47 68.56-468.45 278.03-468.45 278.03s285.65-159.97 498.93-228.52 735.06-144.72 735.06-144.72l-7.62 79.98s68.56-125.69 45.7-228.52c-22.85-102.83-38.1-464.63 106.63-609.36s152.35-358.01 186.63-476.07c34.27-118.07 194.24-99.03 236.13 34.27 41.9 133.3-0.01 392.29-60.94 468.46 83.79 106.64 175.19 289.46 144.72 468.46-30.47 179.01-83.79 198.05-83.79 198.05s180.23-72.26 95.21-483.69c175.2-53.33 342.77-114.26 342.77-114.26l38.09-243.76s-308.5-114.26-380.86-247.56 79.98-274.21 179.01-217.09c99.02 57.13 396.09 274.22 483.69 297.07s19.04 331.35 19.04 369.43c0 63.31 716.16-73.64 670.3 312.31-204.46-103.48-494.43-111.34-700.78-68.55 0 0 430.37-22.85 613.18 68.55 169.96 84.98 319.44 275.56 95.21 403.71-134.9-162.57-420.08-215.44-655.08-137.11 215.08-55.07 584.02 18.26 633.17 165.69 15.24 45.7 3.81 209.47-276.13 91.41-125.68-74.27-424.65-47.61-542.71-1.91s-365.64 289.44-628.43 335.15c-289.46 289.46-860.76 925.5-1523.4 1016.9-327.54 0-532.01-362.11-631.63-561.92s-312.9-984.37-320.52-1296.7l-7.62-312.31s799.81-403.71 918.08-278.29z"/> <path class="fil3" d="m3216.2 8083s-19.6 81.45-48.29 202.06c66.96-17.58 375.02-76.22 567.67 268.51 58.05 69.81 76.17 196.14 76.17 196.14l34.1-293.23-172.13-299.24c-88.81-33.91-177.85-63.73-254.34-81.42l-189.8-3.23c-5.11 2.95-9.6 6.4-13.37 10.4z"/> <path class="fil0" d="m3832.9 6655.8c45.88-109.35 160.03-135.68 305.96-177.37l0.88-0.25c-1.74-39.48 1.78-77.41 11.6-113.14l11.81-43 3276.5-493.23 24.64 31.63c27.65 35.5 53.19 84.22 71.06 125.03 39.04 89.17 60.37 185.39 59.53 282.69l10.9 6.22c151.85 86.6 280.69 212.85 333.55 380.36 5.52-4.51 11.08-8.86 16.66-13.01 49.89-37.05 108.44-56.9 170.82-48.72 131.47 17.22 225.93 148.3 276.89 260.16 41.49 91.08 80.58 230.66 51.95 333.01 53.09 5.61 103.2 22.69 148.62 51.91 154.19 99.15 213.57 309 230.7 481.15 14.76 148.31 5.41 415.33-89.96 538.25l-71.83 92.58-45.51-107.98c-11.02-26.18-112.15-29.29-134.4-29.07-109.28 1.06-230.19 25.13-336.2 50.92-93.25 22.68-186.36 50.18-276.84 82.19-54.56 19.3-124.9 44.52-174.63 74.13l-70.09 41.72c-6.54 40.49-13.83 80.7-22.02 120.48l17.77 13.75c113.31 87.72 151.15 244.05 144.45 382.81 29.24 18.32 61.14 51.76 82.35 75.99 75.27 85.97 138.31 194.2 190.23 295.38l57.25 111.57-4.83-0.47c11.67 27.73 23.39 55.48 35.82 82.8 8.39 18.44 20.26 45.18 32.76 61.13l28.54 36.43c264.69-20.23 525.45 35.29 739.37 221.29 397.75 345.85 462.17 986.02 395.02 1476.7-19.64 143.49-51.27 285.91-95.12 423.96-23.87 75.14-56.44 146.99-96.92 214.64-298.28 498.52-991.67 719.31-1528.5 826.09-421.39 83.81-859.74 121.55-1289.1 132.19-144.86 3.58-289.98 4.02-434.85 0.7-56.35-1.3-113.16-2.86-169.45-6.07-129.34-0.51-258.88-2.69-388.18-5.29-282.44-5.69-565.08-14.75-847.18-29.65-225.28-11.9-451.96-26.99-676.12-52.55-91.91-10.48-184.22-22.76-275.17-39.71-67.42-12.56-139.47-28.09-203.68-52.45-344.22-130.57-620.73-522.48-754.19-851.6-89.15-219.86-141.13-466.12-120.06-703.88 25.82-291.42 141.2-556.89 336.25-774.79 159.04-177.68 361.37-312.69 582.07-401.49 141.44-56.92 290.69-95.02 442.25-113.58 43.46-42.51 159.65-60.74 217.38-68.11 8.24-1.06 16.52-2.03 24.82-2.94-10.28-1.69-20.56-3.31-30.85-4.86l-24.1-3.64-16.4-18.03c-54.25-59.66-92.17-184.73-110.98-261.84-31.72-129.94-46.65-270.35-39.58-403.96 3.44-64.98 12.23-130.01 28.2-193.13l27.2-107.51c-1.81-4.82-3.66-9.65-5.55-14.49l-16.12-41.3c-39.41-45.61-62.54-101.34-74.68-163.09-4.43-22.51-7.3-45.18-9.37-67.96l-47.24-79.35c-45.81-76.96-143.84-155.47-219.58-201.16-89.68-54.09-258.05-128.28-348.6-38.11l-68.08 67.79-41.96-86.42c-21.28-43.83-39.15-95.82-52.43-142.42-27.49-96.49-42.49-202.83-26.53-302.58 14.65-91.62 57.97-172.28 133.06-227.92 25.73-19.07 60.53-38.2 93.4-48.42-15.72-150.08 67.4-260.61 176.8-364.33l13.19-12.51c-7.37-36.37-9.34-73.68-4.74-110.88 26.17-211.08 235.1-310.7 420.93-349.14l20.43-4.23z"/> <path class="fil4" d="m4217.5 6383.2c-112.26 408.64 788.55 1340 1197.1 1518.9-395.6-102.79-1233.5-929.24-1256.8-1357.8-213.28 60.94-281.83 79.98-278.03 251.37 3.81 171.39 236.14 358 373.25 552.24l137.11 194.24s-293.27-304.68-415.14-434.18-167.57-251.37-148.53-380.86c-331.35 68.55-415.15 259-346.6 434.19 68.56 175.2 236.14 236.14 236.14 236.14s-226.62-36.18-285.65-215.19c-146.63 139.02-173.28 234.23-150.43 340.87 87.6 78.08 308.51 298.97 426.58 477.97-167.58-159.96-468.46-441.79-468.46-441.79s-159.97 34.27-190.43 224.7c-30.47 190.43 72.94 404.22 72.94 404.22 183.81-183.03 572.73 80.19 675.47 252.78-34.27-175.19-152.34-335.15-152.34-335.15s136.15 102.83 200.89 338.97c0.97 7.29 1.75 15.12 2.42 23.37 27.04-59.92 60.67-175.82 35.08-352.9-39.64-274.22 85.89-498.92 85.89-498.92s-72.54 203.76-23.13 491.3c40.72 236.94-50.69 436.36-84.14 499.23 11.91 62.13 37.24 124.8 97.21 169.29 129.26 92.78 181.86 148.53 213.29 205.66 0 0-142.83-146.62-222.81-179 60.94 156.15 85.69 348.47 348.48 477.96s331.34 140.92 331.34 140.92-234.22-49.5-358-110.44-253.27-150.46-340.87-344.7c-79.98 316.11 30.45 712.21 106.63 796 201.86 30.46 323.74 76.17 323.74 76.17s-241.85-152.35-255.17-392.29c82.77 224.17 224.7 358.02 403.71 411.33 179.01 53.32 723.64 209.46 921.68 316.11-198.05-45.7-769.34-232.32-1035.9-266.6s-498.9 15.22-531.75 48.07c0 0 128.06-19.52 219.48 7.14-745.2-23.28-1489.8 451.72-1559.6 1239.7-53.32 601.75 388.47 1317.8 830.27 1485.3s2368.1 175.2 2368.1 175.2 3040.1 175.16 3451.4-1119.8c312.66-984.3 23.46-2339.8-1277.7-1976.5-422.76 118.06-278.6 80.8-460.84 156.15 0 0 310.04-196.33 682.12-274.97-25.61-32.68-53.01-101.58-93.76-197.47s-655.08 171.38-655.08 171.38 304.69-270.4 620.81-239.93c-148.54-289.46-251.37-346.58-251.37-346.58s-49.52 140.92-91.41 213.28-144.72 148.54-144.72 148.54 180.9-196.14 205.66-396.1c7.62-81.88 1.9-259-116.17-350.4-285.65 361.81-845.51 731.26-1142.6 891.22-297.07 159.96-403.71 198.05-403.71 198.05s220.9-129.49 403.71-266.6 963.56-681.75 1096.9-891.22c99.99-473.27 93.78-1202.2 44.86-1503.2 140.12 722.37 73.71 1027.5 82.09 1282.7 162.36-96.65 940.5-335.3 1020.3-145.88 132.81-171.17 140.41-944.37-260.56-962.47-182.05-8.21-422.13 85.38-562.82 186.46 164.13-174.27 392.85-239.47 518.27-259.84 63.03-167.35-153.84-657.42-388.89-482.84-110.79 82.29-285.65 331.34-285.65 331.34l175.19-304.68c-40.35-197.29-194.56-321.05-314.59-389.51-70.43 729.27-1851.8 2329.7-2576.3 2783.1 867.25-702.91 2186.5-2006.8 2530.1-2825.8 11.34-225.15-115.42-388.67-115.42-388.67l-3192.7 480.63zm3390.5 1194.1c-255.76 460.67-642.47 833.72-1085.1 1107.4 425.33-373.25 805.23-714.12 1070-1202.3 4.7 31.91 9.72 63.57 15.09 94.87zm-972.97-978.87c-164.84 681.57-1300.3 1729.5-1932.7 2019.7 648.74-463.82 1603.3-1218.4 1832-2018.5 118.07-133.29 100.71-1.22 100.71-1.22z"/> <path class="fil5" d="m4404.7 12823c641.99 36.85 1315.8 39.51 1315.8 39.51s607.23 34.89 1315.6-41.99c-3.44-43.93-8.42-87.58-14.68-130.72-45.31-312.33-159.41-626.04-296.26-909.37-128.92-266.92-287.61-527.18-467.86-762.62-136.86-178.77-311.61-377.77-497.83-506.27l-38.94-26.86-38.94 26.86c-186.21 128.49-360.97 327.5-497.83 506.27-180.24 235.43-338.94 495.69-467.85 762.62-136.85 283.33-250.94 597.04-296.26 909.37-6.38 43.95-11.43 88.45-14.87 133.21z"/> <path class="fil5" d="m2912.5 12342c132.74 162.87 286.23 287.35 439.75 345.58 289.31 109.74 1215.2 150.88 1819.9 166.21l-474.62-919.65-6.53-6.97c-66.24-70.64-149.88-140.61-225.68-200.14-186.63-146.59-393.16-272.43-609.8-369.29-189.33-84.66-371.4-197.7-523.53-339.4-50.19-46.75-115.7-113.25-153.49-171.54l-74.48-114.89-47.36 128.48c-144.57 392.19-220.47 811.43-181.87 1229.6 7.83 84.87 20.38 169.05 37.74 252.01zm3348.3 526.95c602.55-11.67 1579.6-87.86 2244.2-427.82 29.75-114.75 49.98-232.25 60.95-351.14 38.6-418.19-37.3-837.42-181.87-1229.6l-47.36-128.48-74.48 114.89c-37.79 58.29-103.3 124.79-153.49 171.54-152.12 141.71-334.2 254.75-523.53 339.4-216.64 96.87-423.17 222.7-609.8 369.29-75.79 59.54-159.44 129.5-225.68 200.14l-6.54 6.97-482.45 934.81z"/> <path class="fil0" d="m4894.8 6570.1 825.66-29.63 825.66 29.63-24.25 84.32c-10.37 36.04-25.08 73.51-39.56 107.98-35.08 83.61-75 166.91-127.62 240.74-407.69 571.96-873.3 585.2-1268.5 0-50.74-75.13-92.54-157.12-127.62-240.74-14.47-34.48-29.19-71.94-39.56-107.98l-24.25-84.32z"/> <path class="fil2" d="m4984.9 6635.4c278.09 964.62 1193 964.62 1471 0l-735.52-26.4-735.52 26.4z"/> <path class="fil3" d="m4984.9 6635.4c31.58 109.55 71.45 206.52 117.59 291.18 165.47 79.54 392.45 140.98 687.78 122.43 220.61-13.86 401.57-61.03 546.73-119.98 46.72-85.24 87.06-183.01 118.95-293.63l-735.52-26.4-735.52 26.4z"/> <path class="fil0" d="m5722.9 0.09c1289.5 47.19 2447 500.74 2774.2 1857.6 106.53 441.77 108.39 909.83 61.92 1359.9-19.29 186.76-47.28 372.15-80.03 556.98-22.89 129.19-49.73 258.41-70.61 387.8-4.65 28.84-6.95 58.87-9.13 87.99-3.22 42.81-5.75 85.69-8.58 128.52-7.66 115.83-17.34 231-32.74 346.1-40.84 305.1-119.81 604.16-262.13 878.48-468.11 902.29-1422.3 1160.7-2375.4 1160.7-953.06 0-1907.3-258.4-2375.4-1160.7-142.32-274.32-221.29-573.37-262.13-878.48-15.4-115.1-25.08-230.27-32.74-346.1-2.83-42.83-5.36-85.71-8.58-128.52-2.19-29.12-4.48-59.15-9.13-87.99-20.88-129.39-47.72-258.61-70.61-387.8-32.76-184.83-60.75-370.22-80.03-556.98-46.47-450.06-44.61-918.13 61.92-1359.9 327.19-1356.8 1484.7-1810.4 2774.2-1857.6l2.5-0.09 2.5 0.09z"/> <path class="fil2" d="m5720.4 68.6c-3610.1 132.1-2743.3 3320.6-2620.3 4082.8 63.83 395.64-121.9 2544.1 2620.3 2544.1 2742.2 0 2556.5-2148.5 2620.3-2544.1 122.97-762.18 989.83-3950.7-2620.3-4082.8z"/> <path class="fil6" d="m5720.4 68.6c-1855.3 67.89-2528.1 943.05-2727.2 1881.2 10.15-28.94 278.81-724.27 1055.8-724.27 776.95 0 532.08 628.41 1671.4 628.41s894.46-628.41 1671.4-628.41 1045.6 695.33 1055.8 724.27c-199.09-938.18-871.84-1813.3-2727.2-1881.2z"/> <path class="fil0" d="m2616 3702c-123.92-207.08 338.84-353.26 164.57 136.36-68.3 191.87-92.31 539.29 182.01 480.64-192.93 126.31-351.56-183.08-231.46-499.67 147.54-388.98-144.46-320.87-115.11-117.33zm6208.9 0c123.92-207.08-338.84-353.26-164.57 136.36 68.29 191.87 92.31 539.29-182.01 480.64 192.93 126.31 351.56-183.08 231.47-499.67-147.54-388.98 144.46-320.87 115.11-117.33z"/> <path class="fil0" d="m4008.5 4092.4c174.52 233.6 638.99 189.91 828.38-13.33-36.94 448.42-807.69 370.98-883.6 131.4 0 0 59.98 35.23 110.45 45.7-50.46-66.66-52.37-113.31-55.22-163.77z"/> <path class="fil0" d="m5392.9 4882.7c74.47 98.62 240.8 143.56 327.47 139.02 86.67 4.55 253-40.4 327.47-139.02-49.51 243.75-327.47 224.71-327.47 224.71s-277.96 19.04-327.47-224.71z"/> <path class="fil0" d="m5024 5475.9c-15.35 28.15-49.51 85.91-79.03 98.07 0 0 41.9-1.9 80.94-59.98 312.89 381.84 1076.1 381.84 1389 0 39.04 58.08 80.93 59.98 80.93 59.98-29.52-12.16-63.67-69.92-79.03-98.07-202.04 334.4-1190.8 334.4-1392.8 0z"/> <path class="fil7" d="m5720.4 2428.4c233.78 163.29 308.96 613.86 0 661.98-308.96-48.12-233.78-498.69 0-661.98z"/> <path class="fil0" d="m7601.8 3305.9c7.62 281.84-293.26 159.97-544.63 167.58-251.37 7.62-361.81-15.24-365.62-167.58s239.94-278.02 483.69-270.4c243.75 7.61 411.33 110.44 426.56 270.4zm-3762.8 0c-7.61 281.84 293.26 159.97 544.63 167.58 251.37 7.62 361.81-15.24 365.62-167.58s-239.94-278.02-483.69-270.4c-243.75 7.61-411.33 110.44-426.56 270.4z"/> <path class="fil0" d="m7432.3 4092.4c-174.52 233.6-638.99 189.91-828.38-13.33 36.94 448.42 807.69 370.98 883.6 131.4 0 0-59.98 35.23-110.45 45.7 50.46-66.66 52.37-113.31 55.23-163.77z"/> <path class="fil0" d="m4527.2 11219c1344.5 221.78 1781.7-915.12 2704.1-1180.7-985.39 126.53-1093.1 1095.5-2704.1 1180.7z"/> <path class="fil0" d="m4767.1 10393c347.98 143.01 649.59 248.46 1022.6 308.5 0 0-64.76 70.45-131.4 119.97 250.03-164.18 496.36-425.21 746.49-538.91-284.24 113.7-369.37 252.01-599.85 392.29 0 0-570.63-106.96-1037.8-281.84z"/> <path class="fil0" d="m2968.4 12018 1292.5 544.8-7.9 52.66c-12.85 85.66-36.16 177.06-60.33 259.92-53.39 183.03-128.13 365.49-228.86 527.66-119.24 191.96-278.13 359.12-486.48 453.59-263.46 119.46-547.23 96.04-814.93 3.19-230.95-80.11-451.44-195.48-623.37-372.17-136.69-140.49-226.64-303.01-291.3-486.86-154.99-440.71-142.41-915.79-482.4-1278.6l-104.8-111.85 153.24-3.55c416.9-9.69 847.86 44.51 1238.8 194.71 107.36 41.25 213.67 90.39 312.75 148.99 34.01 20.12 71.14 43.07 103.07 67.56zm5504 0c31.93-24.49 69.07-47.44 103.07-67.56 99.09-58.6 205.38-107.74 312.75-148.99 390.96-150.2 821.92-204.4 1238.8-194.71l153.24 3.55-104.8 111.85c-339.99 362.85-327.41 837.93-482.4 1278.6-64.65 183.85-154.61 346.38-291.3 486.86-171.92 176.69-392.41 292.07-623.36 372.17-267.7 92.85-551.47 116.27-814.93-3.19-208.35-94.47-367.24-261.63-486.48-453.59-100.74-162.16-175.47-344.63-228.86-527.66-24.17-82.86-47.49-174.26-60.33-259.92l-7.9-52.66 1292.5-544.8z"/> <path class="fil1" d="m2933.4 12078s-536.38-427.49-1618-402.36c628.05 670.29 113.39 1684.1 1369.5 2119.8 1256.1 435.69 1500.4-1189.8 1500.4-1189.8l-1251.8-527.66zm5574.1 0s536.37-427.49 1618-402.36c-628.05 670.29-113.39 1684.1-1369.5 2119.8s-1500.4-1189.8-1500.4-1189.8l1251.8-527.66z"/> <path class="fil8" d="m1631.2 12275c163.31 575.89 136.24 1202.4 1053.6 1520.6 764.08 265.03 1153.7-232.62 1341.8-663.14l-1093.2-460.82s-431.97-344.14-1302.1-396.67zm6876.2 396.67s431.96-344.14 1302.1-396.67c-163.32 575.89-136.23 1202.4-1053.6 1520.6-764.08 265.03-1153.7-232.62-1341.8-663.14l1093.2-460.82z"/> <path class="fil0" d="m4697.5 12148 739.78 1433.4-33.52 35.34c-204.5 215.59-465.06 352.78-761.28 386.17-272.87 30.76-548.38-30.58-791.27-155.79-264.41-136.3-486.85-344.82-650.59-592.28-188.26-284.52-294.61-612.18-325.88-951.04-38.6-418.19 37.3-837.42 181.87-1229.6l47.36-128.48 74.48 114.89c37.79 58.29 103.3 124.79 153.49 171.54 152.12 141.71 334.2 254.75 523.53 339.4 216.64 96.87 423.17 222.71 609.8 369.3 75.8 59.54 159.44 129.5 225.68 200.14l6.53 6.97zm2052.3-6.97c66.24-70.64 149.88-140.61 225.68-200.14 186.63-146.59 393.16-272.43 609.8-369.3 189.33-84.65 371.4-197.7 523.53-339.4 50.19-46.75 115.7-113.25 153.49-171.54l74.48-114.89 47.36 128.48c144.57 392.19 220.47 811.43 181.87 1229.6-31.27 338.86-137.62 666.52-325.88 951.04-163.74 247.47-386.18 455.99-650.6 592.28-242.89 125.2-518.39 186.55-791.27 155.79-296.21-33.4-556.77-170.58-761.27-386.17l-33.52-35.34 739.79-1433.4 6.54-6.97z"/> <path class="fil1" d="m4641 12188s-307.53-327.53-813.46-553.75c-505.93-226.23-706.56-536.23-706.56-536.23-814.63 2210 1226.8 3532.6 2233.1 2471.7l-713.07-1381.7zm2158.8 0s307.53-327.53 813.46-553.75c505.93-226.23 706.55-536.23 706.55-536.23 814.63 2210-1226.8 3532.6-2233.1 2471.7l713.07-1381.7z"/> <path class="fil8" d="m2957.8 12418c181.82 1225.4 1348.4 1849.2 2150.3 1352.5l-467.05-904.99s-307.53-327.53-813.46-553.75c-505.93-226.23-706.56-536.23-706.56-536.23-82.5 223.82-135.27 438.35-163.22 642.42zm3842 447.56s307.53-327.53 813.46-553.75c505.93-226.23 706.55-536.23 706.55-536.23 82.5 223.82 135.27 438.35 163.22 642.42-181.82 1225.4-1348.4 1849.2-2150.3 1352.5l467.06-904.99z"/> <path class="fil0" d="m5759.4 10572c186.22 128.49 360.98 327.5 497.83 506.27 180.24 235.43 338.94 495.7 467.86 762.62 136.84 283.34 250.94 597.05 296.26 909.37 39.99 275.59 28.12 572.66-108.75 821.7-235.55 428.56-739.6 538.23-1191.3 543.46h-1.58c-451.74-5.22-955.79-114.9-1191.3-543.46-136.88-249.04-148.75-546.12-108.76-821.7 45.32-312.33 159.41-626.04 296.26-909.37 128.92-266.92 287.61-527.19 467.85-762.62 136.86-178.77 311.62-377.77 497.83-506.27l38.94-26.86 38.94 26.86z"/> <path class="fil1" d="m5720.4 10628c-822.57 567.58-2350.4 3391.2 0 3418.4 2350.4-27.2 822.57-2850.9 0-3418.4z"/> <path class="fil8" d="m4515.9 13364c119.35 396.17 475.04 674.12 1204.6 682.56 729.52-8.44 1085.2-286.39 1204.6-682.56-173.41-797.39-781.98-1684.3-1204.6-1975.9-422.58 291.58-1031.2 1178.5-1204.6 1975.9z"/> <path class="fil3" d="m2616 3702s75.24-137.74 156.12-44.59c15.5-199.58-180.41-123.9-156.12 44.59zm434.18 676.83c17.05 334.19 84.48 1233-486.37 1091.6 28.33 32.96 64.4 58.47 109.77 74.97 295.59 107.49 441.66-187.61 502.05-370.7-42.48-146.86-72.33-297.54-92.71-449.73-15.4-115.1-25.08-230.27-32.74-346.1zm-360.71-330.68c-0.92-71.4 11.7-149.88 41.64-228.82 6.56-17.28 12.24-33.66 17.13-49.16-36.86 59.07-85.6 91.58-96.24 150.11-10.67 58.7 18.84 105.25 37.48 127.86z"/> <path class="fil3" d="m8824.8 3702s-75.24-137.74-156.12-44.59c-15.5-199.58 180.41-123.9 156.12 44.59zm-434.19 676.83c-17.05 334.19-84.47 1233 486.37 1091.6-28.33 32.96-64.4 58.47-109.77 74.97-295.6 107.49-441.66-187.61-502.05-370.7 42.48-146.86 72.33-297.54 92.71-449.73 15.4-115.1 25.08-230.27 32.74-346.1zm360.71-330.68c0.92-71.4-11.7-149.88-41.64-228.82-6.56-17.28-12.24-33.66-17.13-49.16 36.86 59.07 85.6 91.58 96.24 150.11 10.68 58.7-18.84 105.25-37.48 127.86z"/> <path class="fil3" d="m5561.4 5954.1s175.19 34.27 318.01 3.81c-127.59 79.99-215.19 83.79-318.01-3.81z"/> <path class="fil3" d="m981.99 8488.8s-72.36 289.46 22.85 483.69c-91.41-87.6-156.15-297.07-22.85-483.69zm1574.8 1694.8c-289.46-129.49-759.81-639.84-759.81-639.84s68.55-17.14 97.12-55.22c-146.63 51.42-243.02 26.77-243.02 26.77 231.85 231.85 644.53 686.07 1140.2 904.65 158.85-176.98 360.69-311.51 580.8-400.08 141.44-56.92 290.69-95.02 442.25-113.58 7.33-7.18 16.73-13.65 27.58-19.51 21.83-56.83 46.26-129.14 71.4-210.64-17.09-45.82-30.23-92.89-39.1-129.27-31.72-129.94-46.65-270.35-39.58-403.96 3.44-64.98 12.23-130.01 28.2-193.13l27.2-107.51c-1.81-4.82-3.66-9.65-5.55-14.49l-16.12-41.3c-39.41-45.61-62.54-101.34-74.68-163.09-4.43-22.51-7.3-45.18-9.37-67.96l-28.8-48.38c10.83 98.18 29.23 241.86 50.59 313.06 34.28 114.26-49.51 304.68-11.43 514.15s-49.55 521.78-49.55 521.78-228.52 15.24-525.59 137.11-399.9 293.26-399.9 293.26-3.81 0-262.8-102.83zm-1073.5-1699.5c-4.07 39.79-5.32 94.19-0.55 168.4 7.33 114.09 41.14 194.16 75.22 247.17-34.79-69.27-59.19-190.43-16.4-397.49-19.59-5.97-39.09-12.02-58.27-18.08zm-284.5-96.18-38.09-243.76s308.5-114.26 380.86-247.56c25.69-47.33 23.06-95.62 4.54-135.66-10.43 64.3-48.91 135.83-122.38 188.89-102.83 74.27-369.44 127.59-369.44 127.59s48.56 155.21 59.03 275.18c-66.65 0-152.34-20-152.34-20l60.94 30.47c60.94 30.47 176.87 24.86 176.87 24.86zm361.94 211.75c24.72-103.85 154.51-229.06 245.81-286.12-79.98-22.85-121.88-102.84-148.54-251.37-26.66-148.54 34.04-294.07 34.04-294.07-23.86 18.89-43.91 46.63-55.27 82.78-41.9 133.3 0.01 392.29 60.94 468.46-54.1 68.85-111.38 169.47-136.97 280.32z"/> <path class="fil3" d="m10823 8488.8s72.36 289.46-22.85 483.69c91.41-87.6 156.15-297.07 22.85-483.69zm-501.3-4.63c4.07 39.79 5.32 94.19 0.55 168.4-7.33 114.09-41.14 194.16-75.22 247.17 34.79-69.27 59.19-190.43 16.4-397.49 19.59-5.97 39.09-12.02 58.27-18.08zm284.5-96.18 38.09-243.76s-308.5-114.26-380.86-247.56c-25.69-47.33-23.06-95.62-4.54-135.66 10.43 64.3 48.91 135.83 122.38 188.89 102.84 74.27 369.44 127.59 369.44 127.59s-48.56 155.21-59.03 275.18c66.65 0 152.34-20 152.34-20l-60.94 30.47c-60.94 30.47-176.87 24.86-176.87 24.86zm-361.94 211.75c-24.72-103.85-154.51-229.06-245.81-286.12 79.98-22.85 121.88-102.84 148.54-251.37 26.66-148.54-34.04-294.07-34.04-294.07 23.87 18.89 43.91 46.63 55.27 82.78 41.9 133.3-0.01 392.29-60.94 468.46 54.1 68.85 111.38 169.47 136.97 280.32z"/> <path class="fil3" d="m7852.7 8875.3s-49.52-228.52-41.89-338.97l7.62-110.45s348.04-189.69 674.85-212.91c-109.28 1.06-230.19 25.13-336.2 50.92-93.25 22.68-186.36 50.18-276.84 82.19-54.56 19.3-124.9 44.52-174.63 74.13l-33.14 19.73c1.01 41.26 2.54 104.19 4.88 200.12 77.6 90.41 104.07 221 98.38 338.91 29.24 18.32 61.14 51.76 82.35 75.99 75.27 85.97 138.31 194.2 190.23 295.38l57.25 111.57-4.83-0.47c11.67 27.73 23.39 55.48 35.82 82.8 8.39 18.44 20.26 45.18 32.76 61.13l28.54 36.43c264.69-20.23 525.45 35.29 739.37 221.29 136.11 118.35 233.19 271.16 299.31 440.65 395.63-237.13 721.12-592.33 917.23-788.45 0 0-109.2-3.96-198.7-68.71 59.03 81.89 59.03 81.89 59.03 81.89s-481.8 443.7-626.53 523.68l-144.73 79.98s-137.11-335.16-434.18-434.18-571.29-114.26-571.29-114.26-87.58-338.97-236.12-521.78c-148.54-182.82-148.54-186.63-148.54-186.63z"/> <path class="fil5" d="m7608 7577.3c-253.59 456.78-635.93 827.4-1073.9 1100.5-51.1 50.47-179.65 173.61-320.94 279.58l-182.81 137.11s460.84-224.71 815.04-521.78 533.2-605.55 685.55-685.54c29.09-15.27 59.16-25.41 88.76-31.81 9.82-312.68-4.17-610.12-31.23-776.64 0 0 28.25 309.4 4.4 403.73 4.7 31.91 9.72 63.57 15.09 94.87z"/> <path class="fil5" d="m3796 8441c-22.19-113.42-79.49-220.46-117.15-281.83-20.51-33.43-35.19-53.32-35.19-53.32s7.59 17.94 16.48 46.21c12.85 40.82 28.44 103.16 27.88 164.11 46.85 42.1 84.73 85.78 107.97 124.83z"/> <path class="fil5" d="m3706.4 8169.9c44.41 54.17 102.2 144.08 138.08 274.92 0.97 7.29 1.75 15.12 2.42 23.37 19.63-43.49 42.73-116.49 44.13-220.97 0.32-23.89-0.5-49.43-2.75-76.64-1.46-17.72-3.54-36.15-6.31-55.3-39.64-274.22 85.89-498.92 85.89-498.92s-117.94 22.04-154.15 264.97c-17.53 117.6-27.23 195.42-32.57 244.42-5.69 52.22-6.43 71.7-6.43 71.7l-131.13-91.59s27.07 20.45 62.81 64.04z"/> <path class="fil5" d="m3181.5 7618.6c159.96 60.94 524.93 382.56 524.93 382.56-167.58-159.96-468.46-441.79-468.46-441.79s-45.11 9.67-91.99 47.25c12.32 3.68 24.21 7.67 35.52 11.98z"/> <path class="fil5" d="m3372.5 7241.7c126.72 147.28 343.46 155.76 343.46 155.76s-226.62-36.18-285.65-215.19c-21.86 20.72-41.05 40.47-57.81 59.43z"/> <path class="fil5" d="m3714.7 6868.2c100.93 127.59 556.69 590.02 675.4 673.96 0 0-293.27-304.68-415.14-434.18s-167.57-251.37-148.53-380.86c-135.36 28.01-229.41 76.35-288.63 135.68 0 0 87.41-30.79 176.91 5.39z"/> <path class="fil5" d="m4059.4 6738.8 99.02 19.04s455.76 967.05 1256.2 1144.3c-395.6-102.79-1233.5-929.24-1256.8-1357.8-213.28 60.94-281.83 79.98-278.03 251.37 0.2 9.2 1.06 18.44 2.54 27.72 0 0 78.08-103.73 177.11-84.69z"/> <path class="fil5" d="m4207.9 6455.4c-1.17 106.96 47.43 238.12 127.14 377.7 0 0 234.64-82.93 425.07 4.66s426.57 685.54 959.77 677.92c175.2-15.24 247.56-60.94 247.56-60.94s-687.16 698.41-1062 1015.5c524.35-389.41 1162.4-928.3 1479.9-1513.5-9.77 15.8-19.99 31.3-30.75 46.39-407.69 571.96-873.3 585.2-1268.5 0-50.74-75.13-92.54-157.12-127.62-240.74-9.05-21.56-18.2-44.3-26.32-67.13-255.47-48.65-500.44-125.8-724.32-239.81z"/> <path class="fil5" d="m7526.2 6274.8c-267.18 197.44-579.57 323.93-912.79 398.74-77.24 234.31-255.4 504.45-480.71 769.44 164.03-89.15 398.43-368.97 558.39-528.93 159.96-159.97 669.79-306.64 669.79-306.64 67.48-111.18 123.23-217.19 164.73-316.14 0.28-5.53 0.48-11.02 0.59-16.47z"/> <path class="fil5" d="m7571.8 6333.9c-70.43 729.27-1851.8 2329.7-2576.3 2783.1 0 0 1185.2-702.45 1771.7-1357.5 586.52-655.08 765.56-1119.7 837.93-1157.8 72.36-38.08 238.04-39.46 281.23 121.74-40.35-197.29-194.56-321.05-314.59-389.51z"/> <path class="fil5" d="m7996.9 6696.8c-73.75 54.78-175.9 183.47-235.95 263.38 79.73-98.76 248.66-268.44 457.51-251.11-65.1-54.43-142.3-71.15-221.56-12.27z"/> <path class="fil5" d="m7941.6 8159.9c-120.02-202.9-176.37-505-121.19-663.21l-72.36 76.17c-53.32-87.6-159.54-494.21-159.54-494.21 126.46 651.95 84.69 964.06 81.51 1206.3-0.35 26.16-0.24 51.5 0.58 76.38 18.07-10.76 43.78-23.27 75.3-36.77 63.93-27.36 151.78-58.72 248.45-87.54-4.81-6.02-9.54-12.21-14.2-18.54-13.47-18.33-26.33-37.94-38.55-58.58z"/> <path class="fil5" d="m4624.7 9421c-29.44-6.39-239.6-53.12-354.54-109.7-53.85-26.51-108.79-58.43-160.88-102.04-19.77-16.55-39.13-34.78-57.87-55.03-45.38-49.05-87.1-109.97-122.12-187.63-16.6 65.6-25 134.65-27.2 203.63 30.67 30.42 71.56 67.65 121.03 105.2 18.83 14.29 38.9 28.62 60.13 42.64 32.05 21.16 66.73 41.61 103.74 60.12 213.29 106.64 262.79 121.87 506.54 190.43 243.75 68.55 754.11-72.36 754.11-72.36s-232.32 49.51-453.22 34.27-366.26-108.78-366.26-108.78-1.07-0.18-3.46-0.74z"/> <path class="fil5" d="m4150.7 9014.2c90.86 50.96 170.12 122.09 182.99 133.86-3.91-4.31-15.88-19.69-51.5-74.48-24.13-37.11-65.16-95.36-113.8-157.08-18.52-23.5-38.15-47.49-58.36-71.01-35.66-41.5-73.16-81.52-109.67-114.7-111.57-101.39-71.5-301.65-71.5-301.65-21.84 84.09-51.92 147.19-68.22 177.84 11.91 62.13 37.24 124.8 97.21 169.29 65.53 47.04 111.36 84.56 144.72 117.57 25.34 25.08 43.48 47.55 57.59 69.61 3.95 6.18 7.59 12.32 10.97 18.48 0 0-4.41-4.53-12.12-12.17-12.65-12.54-34.19-33.49-59.67-56.55-47.29-42.81-108.18-92.94-151.01-110.28 19.66 50.38 35.55 104.54 56.9 159.12 26.14 2.24 53.82 9.98 81.59 21.13 21.47 8.62 42.99 19.28 63.9 31.01z"/> <path class="fil5" d="m4359.6 9838.8s-241.85-152.35-255.17-392.29c0 0-42.67 226.31 33.37 333.88 140.22 27.81 221.81 58.41 221.81 58.41z"/> <path class="fil5" d="m5230.5 10448c-319.93-60.93-914.06-190.43-914.06-190.43l83.79 19.04c83.79 19.05 366.86 115.95 366.86 115.95 292.69 109.56 625.97 192.46 834.11 239.1 26.46-21.34 53.24-41.47 80.26-60.12l29.84-20.59c-64.11-15.76-233.46-55.85-480.8-102.96z"/> <path class="fil5" d="m6022.7 10353c-159.96 102.83-282.83 205.32-282.83 205.32l19.47 13.43c31.88 22 63.44 46.07 94.52 71.75 195.25-129.51 287.73-255.89 550.93-361.18-177.88 80.86-353.84 236.23-530.58 378.29 32.84 28.05 65.12 57.8 96.67 88.72 426.52-298.19 703.09-639.2 1260.4-710.75 0 0-241.18-20.74-568.71 85.9-327.54 106.64-666.51 342.77-666.51 342.77l186.63-217.09-159.96 102.84z"/> <path class="fil5" d="m3067.3 10513c148.85-259.57 339.29-432.72 339.29-432.72-209.17 82.74-398.41 207.22-548.08 368.05-16.53 17.75-32.58 35.96-48.11 54.61-158.64 190.35-264.18 426.15-288.41 699.66-18.1 204.3 20.86 421.76 97.52 626.46 84.42 35.31 167.37 75.76 245.8 122.15 0.99 0.58 1.97 1.17 2.96 1.76 9.67-183.89 39.16-366.44 84.52-545.26-119.04-299.6-41.76-595.88 80.46-832.26 11.02-21.31 22.41-42.13 34.04-62.44z"/> <path class="fil5" d="m9035.3 10810c-44.91 342.01-271.57 602.55-505.89 785.16 22.05 118.06 36.78 237.37 43.08 357.23 0.99-0.59 1.98-1.17 2.96-1.76 99.09-58.6 205.38-107.74 312.75-148.99 95.98-36.87 194.36-67.96 294.35-93.73 128.02-425.84 144.41-915.45 16.8-1303.9-7.28-22.17-15.03-44.01-23.26-65.49-98.46-257.07-264.97-462.54-509.84-563.84 0 0 298.52 179.34 368.32 635.66 3.53 23.03 6.46 46.77 8.76 71.22 9.15 97.73 7.91 206.94-8.04 328.42z"/> <path class="fil5" d="m7843.4 9511.5c73.72-12.1 142.92-19.84 196.18-18.92-5.69-13.46-11.65-27.6-17.94-42.38-13.87-32.64-94.18-23.2-194.11 3.44-21.25 5.67-43.37 12.11-65.94 19.09-183.14 56.67-395.02 148.85-395.02 148.85s208.2-59.81 408.94-98c22.84-4.35 45.57-8.41 67.9-12.08z"/> <path class="fil5" d="m7704.3 9246.5c19.99-17.27 39.61-35.32 57.89-53.76 23.42-23.62 44.62-47.86 61.51-71.86-55.1-67.65-87.76-85.79-87.76-85.79s-1.79 5.1-4.98 13.85c-8.19 22.48-25.59 69.07-45.56 115.35-13.14 30.47-27.39 60.82-40.86 84.08-41.89 72.36-144.72 148.54-144.72 148.54s106.66-65.89 204.49-150.41z"/> <path class="fil5" d="m7054.9 9260.1c281-198.5 466.8-412.36 557.53-529.84 8.96-11.6 16.99-22.26 24.1-31.88-8.11-10.77-17.09-21.01-27.03-30.59-6.33-6.09-13.03-11.91-20.15-17.42-285.65 361.81-845.51 731.26-1142.6 891.22-297.07 159.96-403.71 198.05-403.71 198.05s596.7-186.28 1011.8-479.54z"/> </svg>